/* XPM */
static char *_3510_bb0402919643d6d5f17071a0e81dc7efbf0c66b7ec6320676952b9766ce85639[] = {
/* columns rows colors chars-per-pixel */
"40 80 80 1 ",
"  c #272226",
". c #282327",
"X c #2C272B",
"o c #332E32",
"O c #373236",
"+ c #383337",
"@ c #3A3539",
"# c #3E3A3D",
"$ c #403B3F",
"% c #433E42",
"& c #464145",
"* c #484447",
"= c #4A4549",
"- c #4E494D",
"; c #504B4F",
": c #524D51",
"> c #565155",
", c #585357",
"< c #5B565A",
"1 c #5E595D",
"2 c #605C5F",
"3 c #635E62",
"4 c #666165",
"5 c #686367",
"6 c #6A6569",
"7 c #6E696D",
"8 c #706C6F",
"9 c #736E72",
"0 c #767175",
"q c #787377",
"w c #7B767A",
"e c #7E797D",
"r c #807B7F",
"t c #827D81",
"y c #868285",
"u c #888487",
"i c #8B868A",
"p c #8E898C",
"a c #908B8F",
"s c #928D91",
"d c #969195",
"f c #989397",
"g c #9A9599",
"h c #9E999D",
"j c #A09B9F",
"k c #A39EA2",
"l c #A6A1A5",
"z c #A8A4A7",
"x c #ABA6AA",
"c c #AEA9AD",
"v c #B0ABAF",
"b c #B2AEB1",
"n c #B6B1B5",
"m c #B8B3B7",
"M c #BBB6BA",
"N c #BEB9BD",
"B c #C0BBBF",
"V c #C3BEC2",
"C c #C6C1C4",
"Z c #C8C4C7",
"A c #CAC6C9",
"S c #CEC9CD",
"D c #D0CCCF",
"F c #D3CED2",
"G c #D6D1D5",
"H c #D8D4D7",
"J c #DAD5D9",
"K c #DED9DD",
"L c #E0DBDF",
"P c #E2DDE1",
"I c #E6E1E4",
"U c #E8E3E7",
"Y c #EAE6E9",
"T c #EEE9ED",
"R c #F0EBEF",
"E c #F2EDF1",
"W c #F6F1F4",
"Q c #F8F4F7",
"! c #FBF6FA",
"~ c #FEFBFE",
/* pixels */
"MSCkBPAADANFVNVGIZDCGCBZDmCZKIDZCZZCZDDZ",
"BVMlBSmVJFVDNNNANNGCDDZCZDcZZzDDZZZBNCCB",
"~PnhcMS~JHVANVbVZKRKDGDBvCZccDUUBDHDBNCD",
"JSVSJVVKFJSAVFVDcZUDDHDZDBcHHNHUCDKDCmNB",
"fzhupkckghhdaxgkzzzprpuu8rfafzffpyyyyppf",
"beqmmeiBbxnxabvn8ucBNnu8#8*zc5Nmmnlr,*2r",
"JPFAAJEJRJPVgFFGIUTUHIVm8zCDDHIUDLLCapNI",
"!TFFFJQE!KEVtVGGKRRRIRZbqpDZDIKUIIHCjhBI",
"~~EPFP~!Q~EVtHJJKWWQ!RHCq8DDJP~~TRRDkyDW",
"~EEPPH!!!~RM9DJPDWQQ!WLC1yGWYK!~RRWHzpDR",
"~PRPQG!~R~RVqJR~DRTUQEKm>lDQIKWWRWRDjpGR",
"RPPPEJ!WPERV9SKPURUKQQKb2nDLITTLRRTDjjIW",
"DHPYYPPGFYPVqDKPIUDGTTDm1jKKERHDURLDhzKU",
"DJHKFJPFGYPVwJPPCHDHTLDC1uHHPGBIKIKDfhCD",
"PKJJGVPKPRPV0DFDDIKIRTLD1lHLSFFPITIKkkZL",
"HFYT!SYPJPPVdQ!EHTHDITKB<ZIWFRYSKULKfhDT",
"APEKPVKDRYEVdPPFFAPPTPPm1VJPDDDPQUIKplKD",
"PTPKFNJPP!PMkPVJDSJPETFbwVJKVVJYIUKDelCC",
"PFPPVkVPEPPFqFPDkVPEYJVVtVFJmbFPWQDAuBVV",
"KDT!PnGJP~!HbQYDVFPE~!FVkVT!VMJPTQUDfmNL",
"<<0w6%63333:3tw1%3<339::%;3w;:33q43,>>:8",
"YPPPJSRPJmPEPGEPVQPJxVFPNMNJDPRFAxZZHDVH",
"WYKFPJQRsAP~~FnPE!KVcPPJbnbFHE!Jvm!EZNDQ",
"YJVSRPRTgmVFFKJPPQPFxTPDbADPKEEJCBIINDDW",
"TPVEQJ!EkJmJJFTEP!RJkKJPPVATPEEPBnLIITL!",
"RUVEEHQT9VVPRRQTP!EHgKPPPAFEP!~EnmIILLH!",
"EYFETFQRqAVPPPQPJ!WHtKPHVVFPFPEEzbPPDHGW",
"ETJETJQQ3mSPQEQPJQWPiPPFFAPEGT~EzMLLDHJQ",
"QEPQEP!~pVVDPR!QEW!QxYYHGAJEPQ~!VGTPLLU!",
"!WT!EP!!tVPT~EYP!E~~AEYJVMVTPW~ELYEPHLRQ",
"~WE!QE!!tVPPQQ~~!W~EJEYJFMV!T!~~LEEPGHTW",
"!ER!!W!~tVQPEEQY!!~RPEYJGNV~E!~~LWWUGLEQ",
"~PF!PF~~kFPYP!TET!!VVPEQUvVQLQ!EkPYPPRPQ",
"JPP~WHPJtF!!YERRPPRYVEVVVVVWVYJESPLLJJFR",
"SRPPPVVVkvVVLYWJVFVQPQGGVVVPVYxLPEPJGFVD",
"DPPPPPKSEVPPYGJJKJJRPQREJVVPVQVYG!EPGPHD",
"<;-<,>1:3%,33%<3333%%%93<%33%4,6O,<,%33<",
"PMmAVVVmcsgkGQYVVVJMVVIVVIWPbVVJcVSPHVVV",
"AADJJMdtckckIELmVVGVJVRVcTYPbVVVVFPWJVnV",
"DPFVFc0tFht3VVVVVKGKJVJb6JVVmJJJPGVSnVVG",
"J~EPHVwtVkd<PVQLFPY!PFkgtGPYVJGW!FVVMFFK",
"HPPJVVaiVkj%JLPVVYYEYPcs6PIJVPPYEJFbkMVP",
"PPPPVVhsVjl%vYVVPRYYYTnt1VJVxYEERPJbsxVT",
"PPKJVMatxgl%gVVVR!YEYPnd%mVJVEEERPFxdbPW",
"YQPKPKkmmhj<mVPLEQYQYLxg6bVEIQTUTJVkkVYE",
"PESMSFkVVjdtLnPGYEPQPVkkkVGIVEEYTVkkkVYP",
"PQFMVFcbVbktVVGmJYPWPVcxlVVVmPEEPVxkkmKP",
"PPDVvVcgvVmtjVGbVPPRPJVctxVJVVPUPVxxkkFK",
"YPG~VVvtkVV3gVEVPIYUQPJx4cJEVLIIYEVJdjVY",
"PYFVVmxttgJtgbEkVLPYLVVV0kVGxFPYJJVJgjVP",
"FANAJkttttf%kkJVVEUPVVcqtgVJVJLPLLnt<dVJ",
"SPVVkktkstt6GnbVFGVYEJjttxVVmVPUPPVttVFV",
"3>%3%:%>%%%;3>%%>66>061<343>%,4%q06,%,>6",
"Ptsvp6,@%796tMMvVYP40tt>ttcVcHYV>qt90tnP",
"Vpdttgt%,ddtdxstbVM9jttltgkttxVv%kltttbm",
"mtaVkmt3%0MMkhMvmVm0txjcgjbmmVVv,gkckdnM",
"VbcVtl<73dJKkxVjVmVcxkVjttbxlVbVnkkkvdcV",
"JVxxdV6%%tbMkkxtVTIbtxVLVjxjjPPE6xVGVhvT",
"EkdlxV9%%6tskcbkFQUtxxVJVkxxxYTY%vcJJvmQ",
"PthmxM7%6twtjxbkGEF9vbVlVkxncIJVtvhvVbmE",
"VknMtV4%67tjhkbsVEVxhVjhkjkvlJPVllbhgkVY",
"Vlvvtn<%:<9ddkndVFVxmnlxtgjxkVHVxxVkjtVV",
"Vtvcgl<9170tkvxtVMm9LxbmtkxxhVVxtVlvVgbm",
"ngVkdl6w%90sVVxgbVb6PbvGxVxkgnMctTjVVtVV",
"Vhkvtl3<679tbbxwcVcttMFMkxMttnVxwxnJjtbn",
"vttj0j>:1<7tMtktxbcwxxbtttttxMMk7ttMttlv",
"ctkltc<166ttctctccn7Mtxt00tttbcktbxtttxn",
"xtgd6j%%<7tttttwktb0Vxltw99tttkklMxttttx",
"g0tt<t%%=-::60t<tttwltt06<<7ttttwtttt37t",
"6%1<%6%%%+ .-;3=<<3:36%Xo.o=3<36:37=++-<",
"VmVVmFJFAVktbcMVFFAAVVcwtkkMAFFAFVnjttMF",
"LFVVVFPHFPMtbMASPJJFJAV9vxvAFJKFJSVMtAAJ",
"LJVFVUJJPSMtVVSVPPJJFFn9xMAAJPKKJGAxtMGP",
"LJVFVPLLPJStMMAVJPJJFFM9xVVAJPPPJGSttBGL",
"JJVFVJJJJGVtMVFAJKJJFFn9cNVAFJJPFFFctVJJ",
"FJVVMFJJSFVtMVFVJJGFAAv4cVVVAGGJFSVttAFG",
"FFVVVJJGFVMtVVVMFJFFAVx4xVVVAFFFSAMttnFF",
"FVVVVFFSFVbtVVSbAFAAVVx4lBABAFFAACMttbAF",
"VVVVVVVVVnkwvVAbAAVVBMl3tBVMVAAVMMVtwxVS",
"VMmmVVVMmbt9tbMxVABMMBt<txnnBVVVbnMtttVV"
};
